<?xml version="1.0" encoding="UTF-8"?><svg xmlns="http://www.w3.org/2000/svg" viewBox="0 0 194 168"><defs><style>.d{fill:none;stroke:#000;stroke-miterlimit:10;stroke-width:5px;}</style></defs><g id="a"/><g id="b"><g id="c"><g><rect class="d" x="2.5" y="2.5" width="189" height="131" rx="9.29" ry="9.29"/><rect class="d" x="81.5" y="133.5" width="31" height="31"/><path d="M126.33,168h-58.67c-1.47,0-2.67-1.34-2.67-3h0c0-1.66,1.19-3,2.67-3h58.67c1.47,0,2.67,1.34,2.67,3h0c0,1.66-1.19,3-2.67,3Z"/><path d="M113.46,35.91l-26.84,66.43c-.67,1.67-2.47,2.52-4,1.9h0c-1.54-.62-2.24-2.48-1.56-4.14l26.84-66.43c.67-1.67,2.47-2.52,4-1.9h0c1.54,.62,2.24,2.48,1.56,4.14Z"/><path d="M66.1,93.97l-42-23.33c-.58-.32-1.07-.81-1.34-1.42-.64-1.49-.02-3.11,1.28-3.83l42.06-23.37c1.21-.67,2.73-.24,3.4,.97h0c.67,1.21,.24,2.73-.97,3.4l-38.88,21.6,38.88,21.6c1.21,.67,1.64,2.19,.97,3.4h0c-.67,1.21-2.19,1.64-3.4,.97Z"/><path d="M127.22,93.97l42-23.33c.58-.32,1.07-.81,1.34-1.42,.64-1.49,.02-3.11-1.28-3.83l-42.06-23.37c-1.21-.67-2.73-.24-3.4,.97h0c-.67,1.21-.24,2.73,.97,3.4l38.88,21.6-38.88,21.6c-1.21,.67-1.64,2.19-.97,3.4h0c.67,1.21,2.19,1.64,3.4,.97Z"/></g></g></g></svg>